<svg width="40" height="40" viewBox="0 0 40 40" fill="none" xmlns="http://www.w3.org/2000/svg">
<path d="M26.487 8.00499L23.3747 8C19.8782 8 17.6186 10.3183 17.6186 13.9064V16.6297H14.4894C14.219 16.6297 14 16.8489 14 17.1193V21.065C14 21.3354 14.2192 21.5544 14.4894 21.5544H17.6186V31.5106C17.6186 31.781 17.8376 32 18.108 32H22.1908C22.4612 32 22.6801 31.7808 22.6801 31.5106V21.5544H26.3389C26.6093 21.5544 26.8283 21.3354 26.8283 21.065L26.8298 17.1193C26.8298 16.9895 26.7781 16.8651 26.6865 16.7733C26.5949 16.6814 26.47 16.6297 26.3402 16.6297H22.6801V14.3212C22.6801 13.2116 22.9445 12.6483 24.3899 12.6483L26.4865 12.6475C26.7567 12.6475 26.9756 12.4283 26.9756 12.1582V8.49437C26.9756 8.22446 26.7569 8.00549 26.487 8.00499Z" fill="white"/>
</svg>
